<svg width="17" height="20" viewBox="0 0 17 20" fill="none" xmlns="http://www.w3.org/2000/svg">
<path d="M3.75 18.75V16.25M3.75 10.25V0.75M12.75 18.75V9.75M12.75 3.75V0.75" stroke="currentColor" stroke-width="var(--icon-stroke-width)" stroke-linecap="round" stroke-linejoin="round"/>
<path d="M3.75 16.25C5.40685 16.25 6.75 14.9069 6.75 13.25C6.75 11.5931 5.40685 10.25 3.75 10.25C2.09315 10.25 0.75 11.5931 0.75 13.25C0.75 14.9069 2.09315 16.25 3.75 16.25Z" stroke="#0F0F0F" stroke-width="1.5" stroke-linecap="round" stroke-linejoin="round"/>
<path d="M12.75 9.75C14.4069 9.75 15.75 8.40685 15.75 6.75C15.75 5.09315 14.4069 3.75 12.75 3.75C11.0931 3.75 9.75 5.09315 9.75 6.75C9.75 8.40685 11.0931 9.75 12.75 9.75Z" stroke="#0F0F0F" stroke-width="1.5" stroke-linecap="round" stroke-linejoin="round"/>
</svg>
