<svg width="20" height="20" viewBox="0 0 20 20" fill="none" xmlns="http://www.w3.org/2000/svg">
<path d="M18.75 9.25003C18.7534 10.5699 18.4451 11.8719 17.85 13.05C17.1444 14.4618 16.0598 15.6492 14.7174 16.4793C13.3751 17.3094 11.8282 17.7494 10.25 17.75C8.93013 17.7535 7.62812 17.4451 6.45 16.85L0.75 18.75L2.65 13.05C2.05493 11.8719 1.74656 10.5699 1.75 9.25003C1.75061 7.67179 2.19061 6.12488 3.02072 4.78258C3.85083 3.44028 5.03825 2.3556 6.45 1.65003C7.62812 1.05496 8.93013 0.746587 10.25 0.750028H10.75C12.8343 0.86502 14.803 1.74479 16.2791 3.22089C17.7552 4.69699 18.635 6.66568 18.75 8.75003V9.25003Z" stroke="currentColor" stroke-width=""var(--icon-stroke-width)"" stroke-linecap="round" stroke-linejoin="round"/>
</svg>
